<svg width="100" height="100" viewBox="0 0 100 100" fill="none" xmlns="http://www.w3.org/2000/svg">
  <rect width="100" height="100" rx="20" fill="#3B82F6"/>
  <path d="M50 20C33.4315 20 20 33.4315 20 50C20 66.5685 33.4315 80 50 80C66.5685 80 80 66.5685 80 50C80 33.4315 66.5685 20 50 20Z" stroke="white" stroke-width="6"/>
  <path d="M50 20C41.7157 20 35 33.4315 35 50C35 66.5685 41.7157 80 50 80C58.2843 80 65 66.5685 65 50C65 33.4315 58.2843 20 50 20Z" stroke="white" stroke-width="6"/>
  <path d="M20 50L80 50" stroke="white" stroke-width="6"/>
</svg>
